<svg width="32" height="32" viewBox="0 0 32 32" xmlns="http://www.w3.org/2000/svg">
  <rect width="32" height="32" fill="#ffffff" />
  <!-- Stripes -->
  <rect width="32" height="2.46" y="0" fill="#B22234" />
  <rect width="32" height="2.46" y="4.92" fill="#B22234" />
  <rect width="32" height="2.46" y="9.85" fill="#B22234" />
  <rect width="32" height="2.46" y="14.77" fill="#B22234" />
  <rect width="32" height="2.46" y="19.69" fill="#B22234" />
  <rect width="32" height="2.46" y="24.62" fill="#B22234" />
  <rect width="32" height="2.46" y="29.54" fill="#B22234" />
  <!-- Blue field -->
  <rect width="12.8" height="17.23" fill="#3C3B6E" />
  <!-- Stars (simplified) -->
  <g fill="#ffffff">
    <circle cx="2.13" cy="2.15" r="0.65" />
    <circle cx="6.4" cy="2.15" r="0.65" />
    <circle cx="10.67" cy="2.15" r="0.65" />
    <circle cx="4.27" cy="4.31" r="0.65" />
    <circle cx="8.53" cy="4.31" r="0.65" />
    <circle cx="2.13" cy="6.46" r="0.65" />
    <circle cx="6.4" cy="6.46" r="0.65" />
    <circle cx="10.67" cy="6.46" r="0.65" />
    <circle cx="4.27" cy="8.62" r="0.65" />
    <circle cx="8.53" cy="8.62" r="0.65" />
    <circle cx="2.13" cy="10.77" r="0.65" />
    <circle cx="6.4" cy="10.77" r="0.65" />
    <circle cx="10.67" cy="10.77" r="0.65" />
    <circle cx="4.27" cy="12.92" r="0.65" />
    <circle cx="8.53" cy="12.92" r="0.65" />
    <circle cx="2.13" cy="15.08" r="0.65" />
    <circle cx="6.4" cy="15.08" r="0.65" />
    <circle cx="10.67" cy="15.08" r="0.65" />
  </g>
</svg>