<svg width="417" height="451" viewBox="0 0 417 451" fill="none" xmlns="http://www.w3.org/2000/svg">
<path d="M415.103 188.288H1.91668C0.567129 188.288 -0.0293935 186.586 1.01699 185.745L47.283 148.574C55.0673 93.8393 90.4685 47.9938 138.935 25.5894L173.955 91.0522L178.786 100.088H233.237L238.117 91.2771L274.31 26.0001C322.327 48.5219 357.366 94.1718 365.111 148.574L415.925 185.706C417.039 186.518 416.462 188.288 415.084 188.288H415.103Z" fill="#FFCB04"/>
<path d="M263.629 9.99796C245.675 3.61205 226.351 0.130615 206.205 0.130615C186.06 0.130615 168.398 2.71236 149.798 9.63613L189.042 82.9713H223.182L263.629 9.99796Z" fill="#2A3341"/>
<path d="M293.298 211.116C280.105 249.021 244.039 275.317 202.849 275.317C161.658 275.317 125.592 249.031 112.399 211.116H48.6089V450.808H109.241V304.851C135.528 324.478 168.063 335.949 202.849 335.949C277.103 335.949 341.158 283.571 356.022 211.126H293.288L293.298 211.116Z" fill="#2A3341"/>
</svg>
