<svg width="37" height="41" viewBox="0 0 37 41" fill="none" xmlns="http://www.w3.org/2000/svg">
<path d="M36.8189 16.942H0.39778C0.278822 16.942 0.22624 16.792 0.318476 16.7179L4.39668 13.4413C5.08285 8.61661 8.20336 4.57547 12.4755 2.60059L15.5624 8.37093L15.9882 9.16744H20.788L21.2181 8.39076L24.4084 2.63679C28.6409 4.62202 31.7296 8.64592 32.4123 13.4413L36.8913 16.7144C36.9896 16.786 36.9387 16.942 36.8172 16.942H36.8189Z" fill="#FFCB04"/>
<path d="M23.467 1.22622C21.8843 0.663323 20.181 0.356445 18.4052 0.356445C16.6295 0.356445 15.0727 0.584018 13.4331 1.19433L16.8924 7.6586H19.9017L23.467 1.22622Z" fill="#FFCB04"/>
<path d="M26.0822 18.9551C24.9194 22.2963 21.7402 24.6142 18.1094 24.6142C14.4786 24.6142 11.2995 22.2971 10.1366 18.9551H4.51367V40.0831H9.85818V27.2175C12.1753 28.9476 15.0432 29.9587 18.1094 29.9587C24.6547 29.9587 30.301 25.3418 31.6112 18.9559H26.0814L26.0822 18.9551Z" fill="#FFCB04"/>
</svg>
